<?xml version="1.0" encoding="iso-8859-1"?>
<!-- Uploaded to: SVG Repo, www.svgrepo.com, Generator: SVG Repo Mixer Tools -->
<svg fill="#000000" height="800px" width="800px" version="1.1" id="Layer_1" xmlns="http://www.w3.org/2000/svg" xmlns:xlink="http://www.w3.org/1999/xlink" 
	 viewBox="0 0 512 512" xml:space="preserve">
<g>
	<g>
		<path d="M170.489,162.472h-8.551c-4.427,0-8.017,3.589-8.017,8.017s3.589,8.017,8.017,8.017h8.551
			c4.427,0,8.017-3.589,8.017-8.017S174.916,162.472,170.489,162.472z"/>
	</g>
</g>
<g>
	<g>
		<path d="M264.551,162.472H256c-4.427,0-8.017,3.589-8.017,8.017s3.589,8.017,8.017,8.017h8.551c4.427,0,8.017-3.589,8.017-8.017
			S268.979,162.472,264.551,162.472z"/>
	</g>
</g>
<g>
	<g>
		<path d="M332.208,146.281C328.519,83.86,276.575,34.205,213.244,34.205H93.528c-5.129,0-9.025,4.977-7.777,9.961l6.061,24.244
			H67.875c-5.599,0-9.545,5.871-7.416,11.061c0.258,0.63,13.316,32.437,28.389,68.615c-12.09,5.2-20.438,17.278-20.438,30.954
			c0,18.566,15.105,33.67,33.67,33.67c4.445,0,8.826-0.89,12.885-2.571c5.622,13.155,10.544,24.46,14.026,32.088
			c1.52,3.33,5.231,5.243,8.825,4.537c3.383-0.664,6.021-3.503,6.423-6.931c19.476,15.51,43.87,24.183,69.006,24.183
			c25.139,0,49.536-8.674,69.013-24.189c0.331,2.831,2.138,5.308,4.804,6.444c2.956,1.259,6.377,0.634,8.695-1.591
			c9.129-8.762,16.932-19.954,22.965-32.457c1.871,0.319,3.77,0.485,5.688,0.485c18.566,0,33.67-15.104,33.67-33.67
			C358.079,163.402,347.158,149.842,332.208,146.281z M102.079,196.676c-9.725,0-17.637-7.912-17.637-17.637
			c0-7.121,4.313-13.415,10.578-16.165c4.604,11.008,9.255,22.081,13.672,32.513C106.618,196.227,104.393,196.676,102.079,196.676z
			 M282.188,218.15c-17.824,18.963-42.919,29.833-68.944,29.833c-26.023,0-51.119-10.87-68.944-29.833v-82.401h137.887V218.15z
			 M298.221,216.317v-88.585c0-4.427-3.589-8.017-8.017-8.017H136.284c-4.427,0-8.017,3.589-8.017,8.017v72.733
			c-16.712-39.201-38.973-93.077-48.426-116.023h22.238c5.129,0,9.025-4.977,7.777-9.961l-6.061-24.244h109.448
			c56.876,0,103.148,46.272,103.148,103.148C316.393,175.526,309.575,198.413,298.221,216.317z M325.085,196.642
			c3.666-10.796,6.067-22.151,6.954-33.487c5.948,2.877,10.007,8.988,10.007,15.885
			C342.046,188.537,334.495,196.283,325.085,196.642z"/>
	</g>
</g>
<g>
	<g>
		<path d="M235.157,198.28c-3.542-2.656-8.567-1.938-11.223,1.603c-3.962,5.284-10.416,5.344-10.689,5.344
			c-6.607,0-10.524-5.124-10.688-5.342c-2.656-3.542-7.68-4.263-11.223-1.607c-3.542,2.655-4.263,7.68-1.607,11.223
			c1.472,1.964,9.524,11.76,23.517,11.76c2.454,0,15.123-0.567,23.516-11.758C239.416,205.961,238.698,200.936,235.157,198.28z"/>
	</g>
</g>
<g>
	<g>
		<path d="M418.472,0c-17.419,0-34.163,5.234-48.422,15.138c-3.636,2.526-4.537,7.521-2.012,11.157
			c2.525,3.635,7.522,4.537,11.157,2.012c11.561-8.03,25.143-12.273,39.276-12.273c38.015,0,68.944,30.928,68.944,68.944
			s-30.928,68.944-68.944,68.944s-68.944-30.928-68.944-68.944c0-9.101,1.742-17.939,5.18-26.271
			c1.689-4.093-0.261-8.779-4.354-10.468c-4.093-1.689-8.779,0.261-10.468,4.354c-4.241,10.281-6.392,21.177-6.392,32.385
			c0,46.856,38.121,84.977,84.977,84.977s84.977-38.121,84.977-84.977S465.328,0,418.472,0z"/>
	</g>
</g>
<g>
	<g>
		<path d="M418.472,25.653c-32.711,0-59.324,26.612-59.324,59.324c0,32.711,26.612,59.324,59.324,59.324
			c32.711,0,59.324-26.612,59.324-59.324C477.795,52.266,451.183,25.653,418.472,25.653z M418.472,128.267
			c-23.87,0-43.29-19.42-43.29-43.29s19.42-43.29,43.29-43.29c23.871,0,43.29,19.42,43.29,43.29S442.342,128.267,418.472,128.267z"
			/>
	</g>
</g>
<g>
	<g>
		<path d="M448.573,95.408l-22.084-14.722V59.324c0-4.427-3.589-8.017-8.017-8.017c-4.427,0-8.017,3.589-8.017,8.017v25.653
			c0,2.681,1.339,5.184,3.57,6.67l25.653,17.102c3.928,2.619,9.406,1.191,11.572-2.994
			C453.103,102.177,451.924,97.642,448.573,95.408z"/>
	</g>
</g>
<g>
	<g>
		<path d="M503.983,427.201c4.427,0,8.017-3.589,8.017-8.017v-69.122c0-4.427-3.589-8.017-8.017-8.017h-64.668v-9.086
			c0-13.851-11.268-25.119-25.119-25.119h-34.205c-13.851,0-25.119,11.268-25.119,25.119v9.086h-5.344v-34.739
			c0-23.281-18.941-42.221-42.221-42.221H119.182c-23.281,0-42.221,18.941-42.221,42.221v35.128C33.851,346.489,0,382.871,0,427.023
			C0,473.879,38.121,512,84.977,512c0.594,0,102.614,0,102.614,0c4.427,0,8.017-3.589,8.017-8.017c0-4.427-3.589-8.017-8.017-8.017
			h-53.026c21.412-15.444,35.389-40.585,35.389-68.944c0-44.152-33.851-80.534-76.96-84.588v-35.128
			c0-14.44,11.748-26.188,26.188-26.188h54.43l14.33,35.825l-16.864,143.347c-0.394,3.355,1.355,6.596,4.377,8.107l34.205,17.102
			c2.237,1.118,4.933,1.118,7.17,0l34.205-17.102c3.022-1.51,4.772-4.752,4.377-8.107l-16.864-143.347l14.33-35.825h54.43
			c14.44,0,26.188,11.748,26.188,26.188v34.739h-43.29c-4.427,0-8.017,3.589-8.017,8.017v145.904h-52.197
			c-4.427,0-8.017,3.589-8.017,8.017c0,4.427,3.589,8.017,8.017,8.017h273.993c4.427,0,8.017-3.589,8.017-8.017v-42.756
			c0-4.427-3.589-8.017-8.017-8.017c-4.427,0-8.017,3.589-8.017,8.017v34.739H298.221V391.168l69.478,31.376v21.581
			c0,4.427,3.589,8.017,8.017,8.017h42.756c4.427,0,8.017-3.589,8.017-8.017v-21.229l69.478-30.443v26.732
			C495.967,423.612,499.556,427.201,503.983,427.201z M153.921,427.023c0,38.015-30.928,68.944-68.944,68.944
			s-68.944-30.928-68.944-68.944s30.928-68.944,68.944-68.944S153.921,389.008,153.921,427.023z M235.608,281.119l-10.689,26.722
			h-23.35l-10.689-26.722H235.608z M238.828,456.574l-25.584,12.794l-25.585-12.792l15.611-132.7h19.947L238.828,456.574z
			 M370.906,332.96c0-5.01,4.076-9.086,9.086-9.086h34.205c5.01,0,9.086,4.076,9.086,9.086v9.086h-52.376V332.96z M410.455,436.109
			h-26.722v-18.171h26.722V436.109z M425.384,405.874c-1.392-2.373-3.962-3.97-6.913-3.97h-42.756c-2.81,0-5.279,1.448-6.711,3.637
			l-70.784-31.966v-15.496h197.745v16.868L425.384,405.874z"/>
	</g>
</g>
<g>
	<g>
		<path d="M84.977,419.006c-5.01,0-9.086-3.808-9.086-8.818c0-5.01,4.076-8.818,9.086-8.818h17.102c4.427,0,8.017-3.589,8.017-8.017
			s-3.589-8.017-8.017-8.017h-9.62v-9.62c0-4.427-3.589-8.017-8.017-8.017c-4.427,0-8.017,3.589-8.017,8.017v10.405
			c-9.62,3.354-16.835,12.752-16.835,23.8c0,13.851,11.402,25.119,25.253,25.119c5.01,0,9.153,4.343,9.153,9.353
			c0,5.01-4.008,9.353-9.019,9.353H67.875c-4.427,0-8.017,3.589-8.017,8.017s3.589,8.017,8.017,8.017h8.551v8.551
			c0,4.427,3.589,8.017,8.017,8.017c4.427,0,8.017-3.589,8.017-8.017v-10.405c10.689-3.354,17.37-12.752,17.37-23.8
			C109.829,430.275,98.828,419.006,84.977,419.006z"/>
	</g>
</g>
</svg>