<?xml version="1.0" encoding="iso-8859-1"?>
<!-- Uploaded to: SVG Repo, www.svgrepo.com, Generator: SVG Repo Mixer Tools -->
<svg fill="#000000" version="1.1" id="Layer_1" xmlns="http://www.w3.org/2000/svg" xmlns:xlink="http://www.w3.org/1999/xlink" 
	 viewBox="0 0 512.001 512.001" xml:space="preserve">
<g>
	<g>
		<g>
			<rect x="10.667" y="341.334" width="85.333" height="170.667"/>
			<rect x="394.667" y="170.667" width="85.333" height="341.333"/>
			<rect x="138.667" y="277.334" width="85.333" height="234.667"/>
			<rect x="266.667" y="213.334" width="85.333" height="298.667"/>
			<path d="M501.223,19.157c-0.006-0.055-0.018-0.107-0.024-0.162c-0.07-0.639-0.163-1.276-0.291-1.909
				c-0.059-0.292-0.145-0.573-0.216-0.861c-0.096-0.389-0.181-0.779-0.299-1.164c-0.103-0.336-0.234-0.658-0.353-0.987
				c-0.118-0.326-0.223-0.655-0.357-0.977c-0.157-0.374-0.342-0.732-0.52-1.095c-0.128-0.263-0.241-0.531-0.381-0.79
				c-0.308-0.57-0.645-1.122-1.002-1.66c-0.029-0.044-0.052-0.09-0.081-0.134c-0.398-0.59-0.826-1.157-1.28-1.703
				c-0.011-0.013-0.019-0.027-0.03-0.039c-0.133-0.159-0.28-0.297-0.416-0.451c-0.316-0.358-0.631-0.716-0.971-1.052
				c-0.255-0.253-0.525-0.481-0.79-0.718c-0.25-0.224-0.492-0.454-0.752-0.666c-0.307-0.25-0.627-0.475-0.944-0.706
				c-0.242-0.176-0.479-0.359-0.729-0.525c-0.321-0.213-0.653-0.403-0.983-0.597c-0.271-0.16-0.538-0.325-0.816-0.473
				c-0.31-0.164-0.629-0.307-0.946-0.456c-0.317-0.149-0.631-0.302-0.957-0.435c-0.292-0.119-0.59-0.218-0.886-0.324
				c-0.36-0.129-0.718-0.262-1.087-0.373c-0.288-0.086-0.58-0.15-0.871-0.224c-0.381-0.096-0.759-0.198-1.147-0.273
				c-0.33-0.064-0.663-0.103-0.995-0.152c-0.351-0.051-0.698-0.113-1.054-0.147c-0.477-0.046-0.956-0.059-1.435-0.072
				c-0.204-0.006-0.403-0.031-0.609-0.031h-0.107c-0.004,0-0.009,0-0.013,0h-85.214c-11.782,0-21.333,9.551-21.333,21.333
				c0,11.782,9.551,21.333,21.333,21.333h26.41l-82.734,68.945c-9.051,7.543-10.274,20.995-2.731,30.046
				c7.543,9.051,20.995,10.274,30.046,2.731l93.009-77.508v39.786c0,11.782,9.551,21.333,21.333,21.333
				c11.782,0,21.333-9.551,21.333-21.333V21.334c0-0.017-0.002-0.033-0.003-0.05C501.33,20.575,501.295,19.865,501.223,19.157z"/>
		</g>
	</g>
</g>
</svg>